<svg width="40" height="40" viewBox="0 0 40 40" fill="none" xmlns="http://www.w3.org/2000/svg">
<circle cx="20" cy="20" r="20" fill="#BDBDBD"/>
<path d="M12.5 29C12.5 29 11 29 11 27.5C11 26 12.5 21.5 20 21.5C27.5 21.5 29 26 29 27.5C29 29 27.5 29 27.5 29H12.5ZM20 20C21.1935 20 22.3381 19.5259 23.182 18.682C24.0259 17.8381 24.5 16.6935 24.5 15.5C24.5 14.3065 24.0259 13.1619 23.182 12.318C22.3381 11.4741 21.1935 11 20 11C18.8065 11 17.6619 11.4741 16.818 12.318C15.9741 13.1619 15.5 14.3065 15.5 15.5C15.5 16.6935 15.9741 17.8381 16.818 18.682C17.6619 19.5259 18.8065 20 20 20Z" fill="#F5F5F5"/>
</svg>
