<svg width="24" height="24" viewBox="0 0 24 24" fill="none" xmlns="http://www.w3.org/2000/svg">
    <path d="M5.97714 18.4033L8.29943 17.5806L8.71771 17.7966C9.68571 18.2953 10.792 18.561 12 18.561C15.9954 18.561 18.8571 15.5299 18.8571 11.8872C18.8571 8.23119 16.016 5.21342 12 5.21342C7.984 5.21342 5.14286 8.23119 5.14286 11.8872C5.14961 13.2863 5.5835 14.6454 6.37943 15.7604L6.76571 16.3065L5.97714 18.402V18.4033ZM5.16914 19.9686C5.06572 20.0054 4.95454 20.01 4.84874 19.9818C4.74294 19.9537 4.64694 19.894 4.57207 19.8098C4.4972 19.7255 4.44659 19.6203 4.42623 19.5066C4.40586 19.3928 4.41659 19.2752 4.45714 19.1677L5.46629 16.4897C4.52135 15.1644 4.00684 13.5494 4 11.8872C4 7.86595 7.06514 4 12 4C16.9349 4 20 7.86595 20 11.8872C20 15.9085 16.9029 19.7744 12 19.7744C10.5771 19.7744 9.30629 19.4492 8.21943 18.8886L5.168 19.9686H5.16914Z" fill="#696969"/>
</svg>