<svg width="48" height="48" viewBox="0 0 48 48" fill="none" xmlns="http://www.w3.org/2000/svg">
<g clip-path="url(#clip0_1648_787)">
<path d="M48 24C48 17.6348 45.4714 11.5303 40.9706 7.02944C36.4697 2.52856 30.3652 0 24 0C17.6348 0 11.5303 2.52856 7.02944 7.02944C2.52856 11.5303 0 17.6348 0 24C0 30.3652 2.52856 36.4697 7.02944 40.9706C11.5303 45.4714 17.6348 48 24 48C30.3652 48 36.4697 45.4714 40.9706 40.9706C45.4714 36.4697 48 30.3652 48 24ZM25.5 34.5C25.5 34.8978 25.342 35.2794 25.0607 35.5607C24.7794 35.842 24.3978 36 24 36C23.6022 36 23.2206 35.842 22.9393 35.5607C22.658 35.2794 22.5 34.8978 22.5 34.5V17.121L16.062 23.562C15.7803 23.8437 15.3983 24.0019 15 24.0019C14.6017 24.0019 14.2197 23.8437 13.938 23.562C13.6563 23.2803 13.4981 22.8983 13.4981 22.5C13.4981 22.1017 13.6563 21.7197 13.938 21.438L22.938 12.438C23.0773 12.2983 23.2429 12.1875 23.4251 12.1119C23.6073 12.0362 23.8027 11.9973 24 11.9973C24.1973 11.9973 24.3927 12.0362 24.5749 12.1119C24.7571 12.1875 24.9227 12.2983 25.062 12.438L34.062 21.438C34.3437 21.7197 34.5019 22.1017 34.5019 22.5C34.5019 22.8983 34.3437 23.2803 34.062 23.562C33.7803 23.8437 33.3983 24.0019 33 24.0019C32.6017 24.0019 32.2197 23.8437 31.938 23.562L25.5 17.121V34.5Z" fill="#BDBDBD"/>
</g>
<defs>
<clipPath id="clip0_1648_787">
<rect width="48" height="48" fill="white"/>
</clipPath>
</defs>
</svg>
