<svg width="24" height="24" viewBox="0 0 24 24" fill="none" xmlns="http://www.w3.org/2000/svg">
<path d="M11.2105 2H12.7895C12.9298 2 13 2.07407 13 2.22222V21.7778C13 21.9259 12.9298 22 12.7895 22H11.2105C11.0702 22 11 21.9259 11 21.7778V2.22222C11 2.07407 11.0702 2 11.2105 2Z" fill="#696969"/>
<path d="M2.23256 11H21.7674C21.9225 11 22 11.0702 22 11.2105V12.7895C22 12.9298 21.9225 13 21.7674 13H2.23256C2.07752 13 2 12.9298 2 12.7895V11.2105C2 11.0702 2.07752 11 2.23256 11Z" fill="#696969"/>
</svg>
