<svg width="80" height="80" viewBox="0 0 80 80" fill="none" xmlns="http://www.w3.org/2000/svg">
    <path d="M4.65626 77.0437C6.07501 78.5812 11.9188 75.8999 16.5313 73.7499C19.9875 72.1437 33.8188 66.4687 40.6938 63.5249C42.55 62.7312 45.25 61.6937 47.1938 59.1374C48.9188 56.8624 53.4938 47.1999 44.2813 37.4124C34.9313 27.4749 25.3 30.2187 21.7 32.7687C19.5813 34.2687 17.8563 37.6499 17.0813 39.3687C13.8063 46.6312 9.13751 59.9374 7.23751 65.1687C5.84376 69.0249 3.25001 75.5187 4.65626 77.0437Z" fill="#FFC107"/>
    <path d="M16.1562 41.5562C16.2437 42.6437 16.4625 44.4124 17.2125 47.8187C17.725 50.1562 18.5625 52.6062 19.2437 54.2249C21.2875 59.0937 24.1562 61.0562 27.0625 62.6312C32 65.3062 35.3562 65.8062 35.3562 65.8062L31.3312 67.4499C31.3312 67.4499 28.8937 66.9437 25.5687 65.3062C22.4 63.7437 19.1 61.0999 16.6875 55.9249C15.6437 53.6812 15.0375 51.5062 14.6875 49.7812C14.2562 47.6437 14.1875 46.4312 14.1875 46.4312L16.1562 41.5562ZM11.2125 54.2312C11.2125 54.2312 11.7125 58.2874 15.0625 63.4062C18.9875 69.3937 24.4687 70.3749 24.4687 70.3749L20.825 71.8749C20.825 71.8749 16.7562 70.6312 12.8875 65.3499C10.475 62.0562 9.79995 58.1187 9.79995 58.1187L11.2125 54.2312ZM7.7437 63.8437C7.7437 63.8437 8.6562 67.3437 10.6562 69.9562C13.0375 73.0749 16.0687 73.9812 16.0687 73.9812L13.275 75.2187C13.275 75.2187 11.1562 74.7749 8.83745 71.8374C7.07495 69.6062 6.57495 67.0437 6.57495 67.0437L7.7437 63.8437Z" fill="#FF8F00"/>
    <path opacity="0.44" d="M6.22494 72.7313C6.09994 72.45 6.09994 72.1312 6.23119 71.8563L22.1499 38.8438L24.7687 48.6875L8.01869 72.8812C7.56869 73.5562 6.55619 73.4688 6.22494 72.7313Z" fill="#FFFDE7"/>
    <path d="M26.0312 51.9937C33.4687 60.6937 41.9375 59.6062 44.7562 57.4062C47.5812 55.1999 49.8125 47.6187 42.4062 39.0624C34.6437 30.0999 25.8562 32.6562 23.825 34.5937C21.7937 36.5312 19.2062 44.0125 26.0312 51.9937Z" fill="url(#paint0_linear_1036_2141)"/>
    <path d="M51.575 55.5751C48.8625 53.3001 47.4188 53.7064 45.4813 54.5126C42.9813 55.5501 39.05 56.3188 33.7125 54.5126L35.3188 50.6438C38.4875 51.7126 40.7813 51.1938 42.7625 50.0251C45.3125 48.5251 48.8 46.4688 54.225 51.0251C56.4875 52.9251 58.8063 54.1876 60.5063 53.6126C61.7438 53.2001 62.4 51.3563 62.7313 49.8876C62.7625 49.7563 62.8125 49.3814 62.85 49.0501C63.15 46.7564 63.65 41.8063 67.3375 39.2751C71.2813 36.5688 75.425 36.5688 75.425 36.5688L76.175 44.0188C74.2688 43.7376 72.9438 44.1251 71.825 44.7438C67.6125 47.0876 71.2813 56.0876 64.725 59.1126C58.4188 62.0438 53.2625 56.9876 51.575 55.5751Z" fill="#03A9F4"/>
    <path d="M28.375 46.075L25.6625 43.6438C30.6438 38.0813 29.3313 33.9938 28.375 31.0188C28.1813 30.4188 28 29.85 27.8813 29.3062C27.4563 27.3813 27.3688 25.7063 27.5 24.2438C25.5875 21.8625 24.7438 19.3687 24.6875 19.2C23.525 15.6812 24.4 12.25 26.4063 9.03125C30.4625 2.5 37.8063 2.5 37.8063 2.5L40.2563 9.05625C38.3938 8.98125 32.2875 9.075 30.4125 12.0312C28.0438 15.7563 29.6 18.0562 29.7125 18.3187C30.1688 17.725 30.6313 17.25 31.0438 16.8813C34.0375 14.225 36.6375 13.8438 38.2938 13.9937C40.1563 14.1625 41.8438 15.1 43.05 16.6375C44.3688 18.325 44.9125 20.5188 44.4938 22.5125C44.0875 24.4563 42.7938 26.1 40.85 27.1437C37.4563 28.9688 34.6313 28.7188 32.7375 28.0875C32.75 28.1312 32.7563 28.1812 32.7688 28.225C32.8375 28.5375 32.975 28.975 33.1375 29.4812C34.2438 32.9062 36.3 38.3438 28.375 46.075ZM32.9688 22.6187C33.3313 22.8812 33.7125 23.1 34.1063 23.2562C35.4188 23.7812 36.85 23.6062 38.475 22.7312C39.4313 22.2188 39.5438 21.6688 39.5813 21.4875C39.6938 20.9438 39.5063 20.25 39.1 19.7313C38.7438 19.275 38.3313 19.0375 37.8375 18.9875C36.9 18.9062 35.6313 19.5 34.3625 20.6312C33.7563 21.175 33.2938 21.8438 32.9688 22.6187Z" fill="#F44336"/>
    <path d="M39.2312 47.0938L35.35 46.9876C35.35 46.9876 37.1937 36.5751 43.1625 34.8251C44.2812 34.5001 45.5062 34.1688 46.7375 33.9876C47.4687 33.8751 48.625 33.7064 49.1937 33.4939C49.325 32.5126 48.9125 31.2626 48.45 29.8438C48.0875 28.7438 47.7125 27.6126 47.5125 26.3751C47.125 23.9626 47.7687 21.8314 49.325 20.3626C51.225 18.5813 54.2937 18.0126 57.7562 18.8001C59.7312 19.2501 61.1875 20.2188 62.4687 21.0688C64.3 22.2876 65.3687 22.9063 67.6062 21.4001C70.3125 19.5751 66.775 12.4313 64.8937 8.30635L71.9125 5.38135C72.8562 7.44385 77.4125 18.0563 74.4062 24.1126C73.3937 26.1501 71.65 27.5001 69.3625 28.0063C64.3875 29.1189 61.475 27.1813 59.35 25.7688C58.3437 25.1001 57.4625 24.5751 56.5062 24.3001C49.8625 22.4063 59.1375 32.1814 54.7937 36.5751C52.1875 39.2064 45.8187 39.9001 45.4062 40.0001C41.3062 40.9876 39.2312 47.0938 39.2312 47.0938Z" fill="#F48FB1"/>
    <path d="M27.4938 24.2437C27.375 25.6187 27.3188 26.4374 27.675 28.2249C29.3938 29.4874 33.1375 29.4874 33.1375 29.4874C32.975 28.9812 32.8313 28.5437 32.7688 28.2312C32.7563 28.1874 32.75 28.1374 32.7375 28.0937C28.9313 26.1937 27.4938 24.2437 27.4938 24.2437Z" fill="#C92B27"/>
    <path d="M19.7063 30.4L13.2438 27.2313L16.4625 22.5813L21.5313 25.9375L19.7063 30.4Z" fill="#FFC107"/>
    <path d="M10.1813 21.6251C6.88127 21.1813 3.51877 18.3813 3.15002 18.0626L6.39377 14.2563C7.37502 15.0876 9.45627 16.4813 10.85 16.6688L10.1813 21.6251Z" fill="#FB8C00"/>
    <path d="M16.0062 13.2938L11.2562 11.7376C11.8 10.0751 11.9437 8.28135 11.6625 6.5501L16.6 5.75635C17.0062 8.26885 16.8 10.8751 16.0062 13.2938Z" fill="#03A9F4"/>
    <path d="M45.6707 9.57803L50.555 8.50928L51.9657 14.9568L47.0813 16.0255L45.6707 9.57803Z" fill="#FB8C00"/>
    <path d="M57.7875 11.1062L54.35 7.47495C56.15 5.7687 56.5625 3.53745 56.5625 3.51245L61.5 4.3187C61.4375 4.71245 60.8062 8.24995 57.7875 11.1062Z" fill="#FFC107"/>
    <path d="M59.6963 30.3626L64.0632 28.9976L65.5544 33.7701L61.1875 35.1351L59.6963 30.3626Z" fill="#FB8C00"/>
    <path d="M60.9688 70.6437L56 70.0562C56.2125 68.2874 54.8937 66.1187 54.5312 65.6374L58.5313 62.6375C58.8313 63.0312 61.4375 66.6374 60.9688 70.6437Z" fill="#F44336"/>
    <path d="M75.2313 64.3063C73.3626 64.025 71.4501 63.9125 69.5626 63.9813L69.3938 58.9813C71.5875 58.9063 73.8063 59.0313 75.975 59.3625L75.2313 64.3063Z" fill="#FB8C00"/>
    <path d="M68.5088 71.1887L72.0213 67.6306L76.8557 72.4044L73.3432 75.9619L68.5088 71.1887Z" fill="#F48FB1"/>
    <path d="M58.1893 39.5837L61.8018 43.7144L57.6712 47.3269L54.0587 43.1962L58.1893 39.5837Z" fill="#F44336"/>
    <defs>
        <linearGradient id="paint0_linear_1036_2141" x1="46.49" y1="38.6493" x2="27.8856" y2="49.8118" gradientUnits="userSpaceOnUse">
            <stop offset="0.024" stop-color="#8F4700"/>
            <stop offset="1" stop-color="#703E2D"/>
        </linearGradient>
    </defs>
</svg>