<svg width="24" height="24" viewBox="0 0 24 25" fill="none" xmlns="http://www.w3.org/2000/svg">
<g clip-path="url(#clip0_1356_3935)">
<circle cx="12" cy="13.5" r="7" fill="#919191"/>
<path d="M24 12.5C24 18.299 18.627 23 12 23C10.8115 23.0016 9.62788 22.8473 8.4795 22.541C7.6035 22.985 5.592 23.837 2.208 24.392C1.908 24.44 1.68 24.128 1.7985 23.849C2.3295 22.595 2.8095 20.924 2.9535 19.4C1.116 17.555 0 15.14 0 12.5C0 6.701 5.373 2 12 2C18.627 2 24 6.701 24 12.5ZM10.791 10.649C10.6921 10.5014 10.578 10.3647 10.4505 10.241C10.25 10.0346 10.011 9.86944 9.747 9.755L9.735 9.749C9.37976 9.58406 8.99266 9.49906 8.601 9.5C7.164 9.5 6 10.619 6 12.0005C6 13.3805 7.164 14.4995 8.601 14.4995C9.1155 14.4995 9.594 14.357 9.9975 14.1095C9.792 14.693 9.4125 15.3155 8.7825 15.9395C8.72316 15.9974 8.6763 16.0669 8.64482 16.1436C8.61333 16.2203 8.59789 16.3027 8.59943 16.3856C8.60098 16.4685 8.61948 16.5502 8.65381 16.6257C8.68813 16.7012 8.73754 16.7688 8.799 16.8245C9.0585 17.0645 9.4695 17.057 9.72 16.8095C11.721 14.816 11.775 12.6725 11.1315 11.2505C11.037 11.0403 10.923 10.8394 10.791 10.6505V10.649ZM16.5 14.1095C16.296 14.693 15.915 15.3155 15.285 15.9395C15.2257 15.9975 15.179 16.0671 15.1477 16.1438C15.1163 16.2206 15.101 16.303 15.1027 16.3859C15.1044 16.4688 15.123 16.5505 15.1575 16.6259C15.1919 16.7014 15.2414 16.7689 15.303 16.8245C15.561 17.0645 15.972 17.057 16.2225 16.8095C18.2235 14.816 18.2775 12.6725 17.6355 11.2505C17.5405 11.0403 17.426 10.8394 17.2935 10.6505C17.1947 10.5024 17.0806 10.3651 16.953 10.241C16.7526 10.0345 16.5135 9.86941 16.2495 9.755L16.2375 9.749C15.8827 9.58427 15.4962 9.49928 15.105 9.5C13.6695 9.5 12.504 10.619 12.504 12.0005C12.504 13.3805 13.6695 14.4995 15.105 14.4995C15.6195 14.4995 16.098 14.357 16.5015 14.1095H16.5Z" fill="#E2E2E2"/>
</g>
<defs>
<clipPath id="clip0_1356_3935">
<rect width="24" height="24" fill="white" transform="translate(0 0.5)"/>
</clipPath>
</defs>
</svg>
