<svg width="32" height="32" viewBox="0 0 32 32" fill="none" xmlns="http://www.w3.org/2000/svg">
<path fill-rule="evenodd" clip-rule="evenodd" d="M3.75 16C3.75 19.2489 5.04062 22.3647 7.33794 24.6621C9.63526 26.9594 12.7511 28.25 16 28.25C19.2489 28.25 22.3647 26.9594 24.6621 24.6621C26.9594 22.3647 28.25 19.2489 28.25 16C28.25 12.7511 26.9594 9.63526 24.6621 7.33794C22.3647 5.04062 19.2489 3.75 16 3.75C12.7511 3.75 9.63526 5.04062 7.33794 7.33794C5.04062 9.63526 3.75 12.7511 3.75 16ZM30 16C30 19.713 28.525 23.274 25.8995 25.8995C23.274 28.525 19.713 30 16 30C12.287 30 8.72601 28.525 6.1005 25.8995C3.475 23.274 2 19.713 2 16C2 12.287 3.475 8.72601 6.1005 6.1005C8.72601 3.475 12.287 2 16 2C19.713 2 23.274 3.475 25.8995 6.1005C28.525 8.72601 30 12.287 30 16ZM16.875 22.125C16.875 22.3571 16.7828 22.5796 16.6187 22.7437C16.4546 22.9078 16.2321 23 16 23C15.7679 23 15.5454 22.9078 15.3813 22.7437C15.2172 22.5796 15.125 22.3571 15.125 22.125V11.9872L11.3695 15.7445C11.2052 15.9088 10.9824 16.0011 10.75 16.0011C10.5176 16.0011 10.2948 15.9088 10.1305 15.7445C9.9662 15.5802 9.87389 15.3574 9.87389 15.125C9.87389 14.8926 9.9662 14.6698 10.1305 14.5055L15.3805 9.2555C15.4618 9.17401 15.5583 9.10936 15.6646 9.06525C15.7709 9.02114 15.8849 8.99844 16 8.99844C16.1151 8.99844 16.2291 9.02114 16.3354 9.06525C16.4417 9.10936 16.5382 9.17401 16.6195 9.2555L21.8695 14.5055C22.0338 14.6698 22.1261 14.8926 22.1261 15.125C22.1261 15.3574 22.0338 15.5802 21.8695 15.7445C21.7052 15.9088 21.4824 16.0011 21.25 16.0011C21.0176 16.0011 20.7948 15.9088 20.6305 15.7445L16.875 11.9872V22.125Z" fill="#BDBDBD"/>
</svg>
