<svg width="80" height="80" viewBox="0 0 80 80" fill="none" xmlns="http://www.w3.org/2000/svg">
<g filter="url(#filter0_d_1566_6112)">
<g clip-path="url(#clip0_1566_6112)">
<rect x="4" width="72" height="72" rx="36" fill="#F5F5F5"/>
<g opacity="0.3" clip-path="url(#clip1_1566_6112)">
<path d="M38.1899 43.8519L33.3167 40.8442L19.0101 63.4933L23.8833 66.501L38.1899 43.8519Z" fill="#909BA0"/>
<path d="M16.8266 72.3788L16.7707 72.3443C15.2333 71.3958 14.5708 69.7027 15.2906 68.5629L23.4243 55.4644L29.2812 58.9065L20.9134 72.0334C20.1936 73.1732 18.3641 73.328 16.8266 72.3795L16.8266 72.3788Z" fill="#2E4661"/>
<path opacity="0.12" d="M29.1625 47.6218L28.5538 48.448L30.5175 55.9257L34.5393 49.6956L29.1625 47.6218Z" fill="#272525"/>
<path d="M28.4773 47.1822C35.2305 53.8575 46.1796 53.8575 52.9328 47.1822C59.686 40.5068 59.686 29.6839 52.9328 23.0085C46.1796 16.3331 35.2305 16.3331 28.4773 23.0085C21.7241 29.6839 21.7241 40.5068 28.4773 47.1822Z" fill="#59595B"/>
<path d="M25.8291 35.0953C25.8291 43.2164 32.4894 49.7999 40.7052 49.7999C48.921 49.7999 55.5813 43.2164 55.5813 35.0953C55.5813 26.9741 48.921 20.3906 40.7052 20.3906C32.4894 20.3906 25.8291 26.9741 25.8291 35.0953Z" fill="#C7E4F4"/>
<path d="M41.3041 24.4987C46.0471 24.4261 50.3393 27.4732 51.6559 31.9964C52.969 36.5086 50.955 41.4263 46.8584 43.7998C45.704 44.4691 46.6683 46.2887 47.8249 45.6186C52.5414 42.8859 54.9831 37.4681 53.8454 32.1857C52.7245 26.9799 48.1981 23.1385 42.9072 22.5127C42.3957 22.4519 41.8792 22.4374 41.3642 22.445C40.0294 22.465 39.9595 24.5194 41.3034 24.4987L41.3041 24.4987Z" fill="white"/>
<path d="M42.2955 46.1753C42.3081 46.9225 42.9311 47.5183 43.6871 47.5059C44.443 47.4935 45.0457 46.8777 45.0332 46.1304C45.0207 45.3831 44.3977 44.7874 43.6417 44.7998C42.8857 44.8122 42.283 45.428 42.2955 46.1753Z" fill="white"/>
<path d="M23.6181 55.6378L29.1906 58.9128C29.3821 59.0254 29.6288 58.9764 29.7609 58.7995L29.8042 58.7422C29.958 58.537 29.8972 58.2448 29.6735 58.1163L24.0626 54.8911C23.8523 54.7702 23.5832 54.8434 23.4651 55.0534L23.4609 55.061C23.347 55.2641 23.4169 55.5197 23.6181 55.6378Z" fill="#A36652"/>
<path d="M40.599 49.4402C37.0237 49.427 33.5575 48.1436 30.8691 45.8094C28.2149 43.5057 26.5014 40.2977 26.0066 36.8479C25.5006 33.3208 26.4056 29.679 28.4057 26.7321C30.3534 23.8612 33.3576 21.7668 36.7197 20.8487C40.2062 19.8961 44.0086 20.2906 47.2344 21.8959C50.3421 23.4426 52.8426 26.1021 54.1864 29.2728C55.589 32.5837 55.6735 36.3416 54.4876 39.7257C53.3457 42.9848 50.9718 45.7535 47.9682 47.488C45.7375 48.7763 43.177 49.4312 40.5983 49.4402C40.0881 49.4422 40.0881 50.2242 40.5983 50.2228C44.1805 50.2097 47.6299 48.9849 50.4134 46.7613C53.1312 44.5902 55.0313 41.4789 55.7672 38.1093C56.5303 34.6139 55.9985 30.9175 54.3304 27.7524C52.7265 24.7095 50.0423 22.2558 46.8752 20.8667C43.5648 19.4147 39.7841 19.175 36.3039 20.1517C32.9404 21.096 29.9983 23.207 27.9599 26.0006C25.8633 28.8728 24.8815 32.4614 25.1268 35.9851C25.37 39.4791 26.8655 42.8018 29.2702 45.3639C32.1752 48.4593 36.3396 50.2083 40.599 50.2235C41.1091 50.2256 41.1091 49.4429 40.599 49.4409L40.599 49.4402Z" fill="#4E687C"/>
</g>
</g>
</g>
<defs>
<filter id="filter0_d_1566_6112" x="0" y="0" width="80" height="80" filterUnits="userSpaceOnUse" color-interpolation-filters="sRGB">
<feFlood flood-opacity="0" result="BackgroundImageFix"/>
<feColorMatrix in="SourceAlpha" type="matrix" values="0 0 0 0 0 0 0 0 0 0 0 0 0 0 0 0 0 0 127 0" result="hardAlpha"/>
<feOffset dy="4"/>
<feGaussianBlur stdDeviation="2"/>
<feComposite in2="hardAlpha" operator="out"/>
<feColorMatrix type="matrix" values="0 0 0 0 0 0 0 0 0 0 0 0 0 0 0 0 0 0 0.25 0"/>
<feBlend mode="normal" in2="BackgroundImageFix" result="effect1_dropShadow_1566_6112"/>
<feBlend mode="normal" in="SourceGraphic" in2="effect1_dropShadow_1566_6112" result="shape"/>
</filter>
<clipPath id="clip0_1566_6112">
<rect x="4" width="72" height="72" rx="36" fill="white"/>
</clipPath>
<clipPath id="clip1_1566_6112">
<rect width="55" height="43" fill="white" transform="translate(58 18) rotate(90)"/>
</clipPath>
</defs>
</svg>
