<svg width="72" height="72" viewBox="0 0 72 72" fill="none" xmlns="http://www.w3.org/2000/svg">
<g clip-path="url(#clip0_1603_6514)">
<rect width="72" height="72" rx="36" fill="#F5F5F5"/>
<g clip-path="url(#clip1_1603_6514)">
<path d="M34.1901 43.8519L29.3169 40.8442L15.0103 63.4933L19.8835 66.501L34.1901 43.8519Z" fill="#909BA0"/>
<path d="M12.8267 72.3788L12.7708 72.3443C11.2334 71.3958 10.5709 69.7027 11.2907 68.5629L19.4244 55.4644L25.2814 58.9065L16.9135 72.0334C16.1937 73.1732 14.3642 73.328 12.8267 72.3795L12.8267 72.3788Z" fill="#2E4661"/>
<path opacity="0.12" d="M25.1626 47.6218L24.5539 48.448L26.5176 55.9257L30.5394 49.6956L25.1626 47.6218Z" fill="#272525"/>
<path d="M24.4774 47.1822C31.2306 53.8575 42.1798 53.8575 48.933 47.1822C55.6862 40.5068 55.6862 29.6839 48.933 23.0085C42.1798 16.3331 31.2306 16.3331 24.4774 23.0085C17.7242 29.6839 17.7242 40.5068 24.4774 47.1822Z" fill="#59595B"/>
<path d="M21.8291 35.0953C21.8291 43.2164 28.4894 49.7999 36.7052 49.7999C44.921 49.7999 51.5813 43.2164 51.5813 35.0953C51.5813 26.9741 44.921 20.3906 36.7052 20.3906C28.4894 20.3906 21.8291 26.9741 21.8291 35.0953Z" fill="#C7E4F4"/>
<path d="M37.3041 24.4987C42.0471 24.4261 46.3393 27.4732 47.6559 31.9964C48.969 36.5086 46.955 41.4263 42.8584 43.7998C41.704 44.4691 42.6683 46.2887 43.8249 45.6186C48.5414 42.8859 50.9831 37.4681 49.8454 32.1857C48.7245 26.9799 44.1981 23.1385 38.9072 22.5127C38.3957 22.4519 37.8792 22.4374 37.3642 22.445C36.0294 22.465 35.9595 24.5194 37.3034 24.4987L37.3041 24.4987Z" fill="white"/>
<path d="M38.2957 46.1753C38.3082 46.9225 38.9312 47.5183 39.6872 47.5059C40.4432 47.4935 41.0459 46.8777 41.0333 46.1304C41.0208 45.3831 40.3978 44.7874 39.6418 44.7998C38.8858 44.8122 38.2831 45.428 38.2957 46.1753Z" fill="white"/>
<path d="M19.618 55.6378L25.1905 58.9128C25.382 59.0254 25.6287 58.9764 25.7608 58.7995L25.8041 58.7422C25.9578 58.537 25.897 58.2448 25.6734 58.1163L20.0625 54.8911C19.8521 54.7702 19.5831 54.8434 19.465 55.0534L19.4608 55.061C19.3469 55.2641 19.4168 55.5197 19.618 55.6378Z" fill="#A36652"/>
<path d="M36.599 49.4402C33.0237 49.427 29.5575 48.1436 26.8691 45.8094C24.2149 43.5057 22.5014 40.2977 22.0066 36.8479C21.5006 33.3208 22.4056 29.679 24.4057 26.7321C26.3534 23.8612 29.3576 21.7668 32.7197 20.8487C36.2062 19.8961 40.0086 20.2906 43.2344 21.8959C46.3421 23.4426 48.8426 26.1021 50.1864 29.2728C51.589 32.5837 51.6735 36.3416 50.4876 39.7257C49.3457 42.9848 46.9718 45.7535 43.9682 47.488C41.7375 48.7763 39.177 49.4312 36.5983 49.4402C36.0881 49.4422 36.0881 50.2242 36.5983 50.2228C40.1805 50.2097 43.6299 48.9849 46.4134 46.7613C49.1312 44.5902 51.0313 41.4789 51.7672 38.1093C52.5303 34.6139 51.9985 30.9175 50.3304 27.7524C48.7265 24.7095 46.0423 22.2558 42.8752 20.8667C39.5648 19.4147 35.7841 19.175 32.3039 20.1517C28.9404 21.096 25.9983 23.207 23.9599 26.0006C21.8633 28.8728 20.8815 32.4614 21.1268 35.9851C21.37 39.4791 22.8655 42.8018 25.2702 45.3639C28.1752 48.4593 32.3396 50.2083 36.599 50.2235C37.1091 50.2256 37.1091 49.4429 36.599 49.4409L36.599 49.4402Z" fill="#4E687C"/>
</g>
</g>
<defs>
<clipPath id="clip0_1603_6514">
<rect width="72" height="72" rx="36" fill="white"/>
</clipPath>
<clipPath id="clip1_1603_6514">
<rect width="55" height="43" fill="white" transform="translate(54 18) rotate(90)"/>
</clipPath>
</defs>
</svg>
