<svg width="72" height="72" viewBox="0 0 72 72" fill="none" xmlns="http://www.w3.org/2000/svg">
<g clip-path="url(#clip0_1603_6534)">
<rect width="72" height="72" rx="36" fill="#F5F5F5"/>
<g opacity="0.3" clip-path="url(#clip1_1603_6534)">
<path d="M-0.464222 54.4094L-3.99683 57.8777L-1.86044 59.9752L1.67216 56.5069L-0.464222 54.4094Z" fill="#D6D6C6"/>
<path d="M7.96132 41.9154L-3.3374 53.0085L3.08857 59.3176L14.3873 48.2245L7.96132 41.9154Z" fill="#303030"/>
<path d="M13.4739 22.2002L11.1356 24.4958L11.8253 25.173L14.1636 22.8773L13.4739 22.2002Z" fill="#807E7E"/>
<path d="M11.3515 19L7.87817 22.4101V23.1731L10.2968 25.5477L14.5472 21.3746L12.1286 19H11.3515Z" fill="#444443"/>
<path d="M23.2623 23.3131L20.7882 25.7422L19.3132 24.2941L21.7874 21.865H22.3821L23.2623 22.7292V23.3131Z" fill="#807E7E"/>
<path d="M44.2965 30.474L42.1096 32.6211L43.8759 34.3553L46.0628 32.2082L44.2965 30.474Z" fill="#807E7E"/>
<path d="M48.757 32.1109L47.0679 33.7693L42.6985 29.4794L44.3876 27.821H45.3788L48.757 31.1377V32.1109Z" fill="#444443"/>
<path d="M38.656 28.0159L37.8855 28.4175L39.3504 31.127L40.1209 30.7254L38.656 28.0159Z" fill="#807E7E"/>
<path d="M38.9581 27.8714L37.5991 28.5793L37.9299 29.1914L39.2889 28.4835L38.9581 27.8714Z" fill="#444443"/>
<path d="M38.5073 26.3324L36.5601 27.3472L37.3371 28.7844L39.2843 27.7696L38.5073 26.3324Z" fill="#444443"/>
<path d="M33.587 30.0477C34.3325 30.6628 34.4355 31.7528 33.8091 32.4846C33.1826 33.2164 32.0724 33.3177 31.327 32.7026C30.5816 32.0875 30.4785 30.9975 31.105 30.2657C31.7314 29.5338 32.8416 29.4326 33.587 30.0477Z" fill="#807E7E"/>
<path d="M32.0327 32.1577L37.3616 34.9839L41.6755 31.7606C42.5558 31.1845 41.9055 30.5616 41.6676 30.3047H41.6597C41.4297 30.0556 41.057 30.0166 40.7874 30.2113L38.3529 31.4726L32.6275 30.4994C32.231 30.4293 31.8424 30.6317 31.668 30.9821V30.9976C31.4538 31.4181 31.6204 31.9319 32.0407 32.1499L32.0327 32.1577Z" fill="#444443"/>
<path d="M33.8884 35.1163L33.1113 35.8793L19.9634 22.9707C19.7493 22.7605 19.7493 22.4179 19.9634 22.2155C20.1775 21.9975 20.5265 21.9975 20.7326 22.2155L33.8805 35.1241L33.8884 35.1163Z" fill="#444443"/>
<path d="M57.8923 58.839L56.0922 57.0716C55.8464 56.8303 55.8305 56.4721 56.0446 56.2619L56.1001 56.2074L33.024 33.5513L31.5173 35.0305L56.568 59.6253L62 62.0077L58.7725 58.839L58.717 58.8935C58.5029 59.1037 58.1302 59.0803 57.8923 58.8468V58.839Z" fill="#807E7E"/>
<path d="M57.8923 58.839L56.0922 57.0716C55.8464 56.8303 55.8305 56.4721 56.0446 56.2619L56.1001 56.2074L33.024 33.5513L31.5173 35.0305L56.568 59.6253L62 62.0077L58.7725 58.839L58.717 58.8935C58.5029 59.1037 58.1302 59.0803 57.8923 58.8468V58.839Z" fill="#807E7E"/>
<path d="M37.3141 33.2788L32.001 38.4952L26.1646 32.765L21.0419 37.7945L26.8783 43.5247L28.8211 45.4322C30.1296 46.7168 32.2469 46.7168 33.5553 45.4322L36.307 42.7306L44.5779 34.6102L41.9372 32.0176C37.6709 33.1776 41.9372 32.0176 37.3141 33.2788Z" fill="#374A57"/>
<path d="M10.1065 26.5209C10.2493 29.2848 9.60695 32.1811 7.96545 36.1128L15.9112 43.914L26.6801 33.3411C27.2986 32.7339 27.2986 31.7529 26.6801 31.1456L17.1562 21.7951C16.5377 21.1878 15.5385 21.1878 14.92 21.7951L10.1065 26.5209Z" fill="#374A57"/>
<path d="M55.1644 54.806L53.3088 56.6278C51.9211 57.9903 49.669 57.9903 48.2733 56.6278L38.694 47.2228L45.5772 40.4648L55.1565 49.8699C56.5442 51.2324 56.5442 53.4435 55.1565 54.8137L55.1644 54.806Z" fill="#C6D5D6"/>
<path d="M43.1743 39.6319L37.8613 44.8483C37.4251 45.2765 37.4251 45.9617 37.8613 46.3899L38.7019 47.2151L45.585 40.4572L44.7445 39.6319C44.3083 39.2037 43.6105 39.2037 43.1743 39.6319Z" fill="#444443"/>
<path d="M30.0502 36.5878L19.2497 47.1918C18.3377 48.0872 16.8628 48.0872 15.9588 47.1918L9.09936 40.4573C8.18742 39.5619 8.18742 38.1138 9.09936 37.2262L16.5059 29.9545C18.3853 28.1093 21.4225 28.1093 23.3019 29.9545L30.0582 36.5878H30.0502Z" fill="#537894"/>
<path d="M32.7306 31.0599C32.9051 31.2078 32.9289 31.4647 32.7862 31.636C32.6434 31.8073 32.3738 31.8306 32.1993 31.6905C32.0249 31.5426 32.0011 31.2856 32.1438 31.1144C32.2945 30.9431 32.5562 30.9197 32.7306 31.0599Z" fill="#807E7E"/>
<path d="M15.483 28.6464C15.7288 28.8877 16.1015 28.9033 16.3236 28.6853C16.5456 28.4673 16.5297 28.1014 16.2839 27.86L14.1825 25.7968C13.9367 25.5555 13.5639 25.5399 13.3419 25.7579C13.1199 25.9759 13.1357 26.3418 13.3816 26.5832L15.483 28.6464Z" fill="#303030"/>
<path d="M32.9606 40.7452C32.4452 41.2513 32.4055 42.0376 32.8734 42.497C33.3413 42.9563 34.1422 42.9174 34.6576 42.4114L39.1222 38.028C39.6376 37.522 39.6773 36.7356 39.2094 36.2763C38.7416 35.8169 37.9406 35.8559 37.4252 36.3619L32.9606 40.7452Z" fill="#303030"/>
<path d="M15.6416 47.6121H15.6336C15.3878 47.8613 15.0151 47.8846 14.7931 47.6666L8.53635 41.5238C8.31431 41.3058 8.3381 40.9399 8.58393 40.6985H8.59186C8.83768 40.4494 9.21832 40.426 9.43243 40.644L15.6891 46.7869C15.9112 47.0049 15.8874 47.3708 15.6416 47.6121Z" fill="#303030"/>
<path d="M7.67616 41.7725L5.82015 43.5948C5.51666 43.8927 5.51666 44.3758 5.82015 44.6738L11.5957 50.3442C11.8992 50.6422 12.3912 50.6422 12.6947 50.3442L14.5507 48.522C14.8542 48.224 14.8542 47.7409 14.5507 47.4429L8.7752 41.7725C8.47171 41.4746 7.97965 41.4746 7.67616 41.7725Z" fill="#444443"/>
<path d="M4.14736 45.232L2.29134 47.0542C1.98785 47.3522 1.98785 47.8353 2.29134 48.1333L8.06687 53.8037C8.37036 54.1017 8.86241 54.1017 9.1659 53.8037L11.0219 51.9814C11.3254 51.6835 11.3254 51.2004 11.0219 50.9024L5.24639 45.232C4.9429 44.934 4.45085 44.934 4.14736 45.232Z" fill="#444443"/>
<path d="M0.618548 48.699L-1.23747 50.5213C-1.54096 50.8192 -1.54096 51.3023 -1.23747 51.6003L4.53806 57.2707C4.84155 57.5687 5.3336 57.5687 5.63709 57.2707L7.49311 55.4485C7.7966 55.1505 7.7966 54.6674 7.49311 54.3695L1.71758 48.699C1.41409 48.4011 0.922038 48.4011 0.618548 48.699Z" fill="#444443"/>
<path d="M-2.92381 52.1639L-4.77983 53.9861C-5.08332 54.2841 -5.08332 54.7672 -4.77983 55.0652L0.995698 60.7356C1.29919 61.0335 1.79124 61.0335 2.09473 60.7356L3.95075 58.9133C4.25424 58.6154 4.25424 58.1323 3.95075 57.8343L-1.82478 52.1639C-2.12827 51.8659 -2.62032 51.8659 -2.92381 52.1639Z" fill="#444443"/>
</g>
</g>
<defs>
<clipPath id="clip0_1603_6534">
<rect width="72" height="72" rx="36" fill="white"/>
</clipPath>
<clipPath id="clip1_1603_6534">
<rect width="67" height="43" fill="white" transform="translate(-5 19)"/>
</clipPath>
</defs>
</svg>
