<svg
  width="24"
  height="24"
  viewBox="0 0 24 24"
  fill="none"
  xmlns="http://www.w3.org/2000/svg"
>
  <path
    d="M11.9974 21C10.8155 21.0012 9.64497 20.7692 8.55282 20.3174C7.46068 19.8655 6.46835 19.2026 5.63263 18.3667C4.79691 17.5308 4.13422 16.5382 3.68248 15.4458C3.23074 14.3534 2.99882 13.1826 3 12.0004V11.8204C3.036 10.056 3.5896 8.34098 4.59198 6.88864C5.59437 5.4363 7.00136 4.31062 8.63807 3.65152C10.2748 2.99241 12.0691 2.82894 13.7979 3.18142C15.5267 3.5339 17.1139 4.38678 18.3621 5.63408C19.6215 6.89271 20.4792 8.49676 20.8268 10.2432C21.1744 11.9897 20.9962 13.8 20.3148 15.4451C19.6334 17.0902 18.4794 18.4962 16.9988 19.485C15.5182 20.4738 13.7776 21.001 11.9974 21V21ZM11.9974 13.2693L14.3277 15.6002L15.5963 14.3313L13.266 12.0004L15.5963 9.6695L14.3277 8.40055L11.9974 10.7315L9.66705 8.40055L8.39842 9.6695L10.7287 12.0004L8.39842 14.3313L9.66705 15.6002L11.9974 13.2702V13.2693Z"
    fill="current"
  />
</svg>
