<svg width="24" height="24" viewBox="0 0 24 24" fill="none" xmlns="http://www.w3.org/2000/svg">
<path d="M20.25 15.375H18.2625C18.0993 14.8357 17.7669 14.3632 17.3144 14.0274C16.862 13.6916 16.3135 13.5103 15.75 13.5103C15.1865 13.5103 14.638 13.6916 14.1856 14.0274C13.7331 14.3632 13.4007 14.8357 13.2375 15.375H3.75C3.55109 15.375 3.36032 15.454 3.21967 15.5947C3.07902 15.7353 3 15.9261 3 16.125C3 16.3239 3.07902 16.5147 3.21967 16.6553C3.36032 16.796 3.55109 16.875 3.75 16.875H13.2375C13.4007 17.4143 13.7331 17.8868 14.1856 18.2226C14.638 18.5585 15.1865 18.7398 15.75 18.7398C16.3135 18.7398 16.862 18.5585 17.3144 18.2226C17.7669 17.8868 18.0993 17.4143 18.2625 16.875H20.25C20.4489 16.875 20.6397 16.796 20.7803 16.6553C20.921 16.5147 21 16.3239 21 16.125C21 15.9261 20.921 15.7353 20.7803 15.5947C20.6397 15.454 20.4489 15.375 20.25 15.375ZM15.75 17.25C15.5275 17.25 15.31 17.184 15.125 17.0604C14.94 16.9368 14.7958 16.7611 14.7106 16.5555C14.6255 16.35 14.6032 16.1238 14.6466 15.9055C14.69 15.6873 14.7972 15.4869 14.9545 15.3295C15.1118 15.1722 15.3123 15.065 15.5305 15.0216C15.7488 14.9782 15.975 15.0005 16.1805 15.0856C16.3861 15.1708 16.5618 15.315 16.6854 15.5C16.809 15.685 16.875 15.9025 16.875 16.125C16.875 16.4234 16.7565 16.7095 16.5455 16.9205C16.3345 17.1315 16.0484 17.25 15.75 17.25ZM3.75 8.62501H7.2375C7.40069 9.16433 7.73309 9.63683 8.18555 9.97264C8.63802 10.3085 9.18653 10.4898 9.75 10.4898C10.3135 10.4898 10.862 10.3085 11.3144 9.97264C11.7669 9.63683 12.0993 9.16433 12.2625 8.62501H20.25C20.4489 8.62501 20.6397 8.54599 20.7803 8.40534C20.921 8.26469 21 8.07392 21 7.87501C21 7.6761 20.921 7.48533 20.7803 7.34468C20.6397 7.20403 20.4489 7.12501 20.25 7.12501H12.2625C12.0993 6.58569 11.7669 6.1132 11.3144 5.77738C10.862 5.44156 10.3135 5.26025 9.75 5.26025C9.18653 5.26025 8.63802 5.44156 8.18555 5.77738C7.73309 6.1132 7.40069 6.58569 7.2375 7.12501H3.75C3.55109 7.12501 3.36032 7.20403 3.21967 7.34468C3.07902 7.48533 3 7.6761 3 7.87501C3 8.07392 3.07902 8.26469 3.21967 8.40534C3.36032 8.54599 3.55109 8.62501 3.75 8.62501ZM9.75 6.75001C9.9725 6.75001 10.19 6.81599 10.375 6.93961C10.56 7.06322 10.7042 7.23893 10.7894 7.44449C10.8745 7.65006 10.8968 7.87626 10.8534 8.09449C10.81 8.31272 10.7028 8.51317 10.5455 8.67051C10.3882 8.82784 10.1877 8.93499 9.96948 8.97839C9.75125 9.0218 9.52505 8.99952 9.31948 8.91438C9.11391 8.82923 8.93821 8.68503 8.8146 8.50003C8.69098 8.31502 8.625 8.09752 8.625 7.87501C8.625 7.57664 8.74353 7.29049 8.9545 7.07952C9.16548 6.86854 9.45163 6.75001 9.75 6.75001Z" fill="#222222"/>
</svg>
