<svg width="16" height="16" viewBox="0 0 16 16" fill="none" xmlns="http://www.w3.org/2000/svg">
<path d="M11.3569 5H10.515C10.332 5 10.1578 5.09246 10.0501 5.25096L7.22852 9.36444L5.95053 7.50016C5.84283 7.34355 5.67052 7.2492 5.48564 7.2492H4.64382C4.52715 7.2492 4.45894 7.38883 4.52715 7.48884L6.76363 10.7494C6.81647 10.827 6.88612 10.8901 6.96681 10.9337C7.0475 10.9773 7.13691 11 7.22762 11C7.31834 11 7.40775 10.9773 7.48844 10.9337C7.56913 10.8901 7.63878 10.827 7.69161 10.7494L11.4717 5.23964C11.5417 5.13963 11.4735 5 11.3569 5Z" fill="#696969"/>
<circle cx="8" cy="8" r="7.4" stroke="#696969" stroke-width="1.2"/>
</svg>
