<svg width="16" height="16" viewBox="0 0 16 16" fill="none" xmlns="http://www.w3.org/2000/svg">
<path d="M1.97714 14.4033L4.29943 13.5806L4.71771 13.7966C5.68571 14.2953 6.792 14.561 8 14.561C11.9954 14.561 14.8571 11.5299 14.8571 7.88721C14.8571 4.23119 12.016 1.21342 8 1.21342C3.984 1.21342 1.14286 4.23119 1.14286 7.88721C1.14961 9.28631 1.5835 10.6454 2.37943 11.7604L2.76571 12.3065L1.97714 14.402V14.4033ZM1.16914 15.9686C1.06572 16.0054 0.954545 16.01 0.848743 15.9818C0.742941 15.9537 0.646935 15.894 0.572065 15.8098C0.497196 15.7255 0.44659 15.6203 0.426226 15.5066C0.405861 15.3928 0.41659 15.2752 0.457143 15.1677L1.46629 12.4897C0.52135 11.1644 0.00683636 9.54941 0 7.88721C0 3.86595 3.06514 0 8 0C12.9349 0 16 3.86595 16 7.88721C16 11.9085 12.9029 15.7744 8 15.7744C6.57714 15.7744 5.30629 15.4492 4.21943 14.8886L1.168 15.9686H1.16914Z" fill="#696969"/>
</svg>
