<svg width="48" height="48" viewBox="0 0 48 48" fill="none" xmlns="http://www.w3.org/2000/svg">
<rect x="0.5" y="0.5" width="47" height="47" rx="23.5" fill="white"/>
<path d="M35.4397 21.7152H34.4999V21.6668H23.9999V26.3335H30.5933C29.6314 29.0501 27.0467 31.0002 23.9999 31.0002C20.1342 31.0002 16.9999 27.8659 16.9999 24.0002C16.9999 20.1344 20.1342 17.0002 23.9999 17.0002C25.7843 17.0002 27.4078 17.6733 28.6438 18.7729L31.9438 15.473C29.8601 13.5311 27.0729 12.3335 23.9999 12.3335C17.557 12.3335 12.3333 17.5572 12.3333 24.0002C12.3333 30.4431 17.557 35.6668 23.9999 35.6668C30.4428 35.6668 35.6666 30.4431 35.6666 24.0002C35.6666 23.2179 35.5861 22.4543 35.4397 21.7152Z" fill="#FFC107"/>
<path d="M13.6785 18.5699L17.5115 21.381C18.5487 18.8132 21.0606 17.0002 24 17.0002C25.7844 17.0002 27.4078 17.6733 28.6439 18.7729L31.9438 15.473C29.8601 13.5311 27.073 12.3335 24 12.3335C19.5188 12.3335 15.6326 14.8634 13.6785 18.5699Z" fill="#FF3D00"/>
<path d="M24 35.6671C27.0135 35.6671 29.7517 34.5138 31.8219 32.6384L28.2111 29.5829C27.0004 30.5036 25.521 31.0016 24 31.0004C20.9655 31.0004 18.3889 29.0655 17.4183 26.3652L13.6138 29.2965C15.5446 33.0747 19.4658 35.6671 24 35.6671Z" fill="#4CAF50"/>
<path d="M35.4398 21.7154H34.5V21.667H24V26.3337H30.5934C30.1333 27.6266 29.3045 28.7563 28.2093 29.5834L28.2111 29.5822L31.8219 32.6377C31.5664 32.8699 35.6667 29.8337 35.6667 24.0003C35.6667 23.2181 35.5862 22.4545 35.4398 21.7154Z" fill="#1976D2"/>
<rect x="0.5" y="0.5" width="47" height="47" rx="23.5" stroke="#E2E2E2"/>
</svg>
