<svg width="336" height="19" viewBox="0 0 336 19" fill="none" xmlns="http://www.w3.org/2000/svg">
    <path d="M146.246 3.91022H144.931V12.8149H146.246V8.61878H148.021V7.53108H146.246V3.91022ZM142.92 4.84323H137.119V5.92127H141.509C141.257 7.93715 139.478 9.57113 136.607 10.4316L137.158 11.4662C140.735 10.3881 142.92 8.05801 142.92 4.84323ZM138.468 11.9012V15.9088H146.754V14.8453H139.773V11.9012H138.468ZM159.081 12.9986V3.91022H157.785V6.18715H155.866V7.24586H157.785V8.54144H155.866V9.62431H157.785V12.9986H159.081ZM156.06 9.88536C155.581 9.93854 155.073 9.98204 154.561 10.0207V5.91644H155.726V4.86257H149.219V5.91644H150.37V10.1657C149.843 10.1706 149.345 10.1754 148.886 10.1754L149.04 11.268C151.008 11.2583 153.768 11.2148 156.118 10.8425L156.06 9.88536ZM153.314 5.91644V10.0884C152.748 10.1174 152.182 10.1319 151.631 10.1464V5.91644H153.314ZM152.41 12.2686H151.1V15.9088H159.4V14.8453H152.41V12.2686ZM170.905 11.4565H174.812V10.393H167.343V8.60428H174.526V4.78039H166.028V5.83909H173.245V7.56008H166.052V11.4565H169.62V13.6126H164.689V14.6906H175.899V13.6126H170.905V11.4565ZM185.359 6.46271C185.355 8.00967 185.355 9.81285 184.871 12.2735L186.191 12.3895C186.641 9.76934 186.641 8.05318 186.641 6.46271V5.15746H178.132V6.21616H185.359V6.46271ZM176.938 14.4247H188.105V13.3515H176.938V14.4247ZM198.049 3.91989V12.8246H199.349V3.91989H198.049ZM192.697 10.828C194.544 10.8329 195.951 9.5808 195.951 7.78246C195.951 6.00829 194.544 4.75138 192.697 4.75138C190.851 4.75138 189.434 6.00829 189.434 7.78246C189.434 9.5808 190.851 10.8329 192.697 10.828ZM190.706 7.78246C190.696 6.65124 191.557 5.8826 192.697 5.8826C193.819 5.8826 194.68 6.65124 194.68 7.78246C194.68 8.93301 193.819 9.69682 192.697 9.69682C191.557 9.69682 190.696 8.93301 190.706 7.78246ZM192.639 11.9206H191.334V15.9088H199.707V14.8453H192.639V11.9206Z" fill="#9E9E9E"/>
    <rect y="8" width="128" height="1" fill="#E2E2E2"/>
    <rect x="209" y="8" width="127" height="1" fill="#E2E2E2"/>
</svg>