<svg width="18" height="14" viewBox="0 0 18 14" fill="none" xmlns="http://www.w3.org/2000/svg">
    <path d="M17.25 10.375H15.2625C15.0993 9.83569 14.7669 9.3632 14.3144 9.02738C13.862 8.69157 13.3135 8.51025 12.75 8.51025C12.1865 8.51025 11.638 8.69157 11.1856 9.02738C10.7331 9.3632 10.4007 9.83569 10.2375 10.375H0.75C0.551088 10.375 0.360322 10.454 0.21967 10.5947C0.0790178 10.7353 0 10.9261 0 11.125C0 11.3239 0.0790178 11.5147 0.21967 11.6553C0.360322 11.796 0.551088 11.875 0.75 11.875H10.2375C10.4007 12.4143 10.7331 12.8868 11.1856 13.2226C11.638 13.5585 12.1865 13.7398 12.75 13.7398C13.3135 13.7398 13.862 13.5585 14.3144 13.2226C14.7669 12.8868 15.0993 12.4143 15.2625 11.875H17.25C17.4489 11.875 17.6397 11.796 17.7803 11.6553C17.921 11.5147 18 11.3239 18 11.125C18 10.9261 17.921 10.7353 17.7803 10.5947C17.6397 10.454 17.4489 10.375 17.25 10.375ZM12.75 12.25C12.5275 12.25 12.31 12.184 12.125 12.0604C11.94 11.9368 11.7958 11.7611 11.7106 11.5555C11.6255 11.35 11.6032 11.1238 11.6466 10.9055C11.69 10.6873 11.7972 10.4869 11.9545 10.3295C12.1118 10.1722 12.3123 10.065 12.5305 10.0216C12.7488 9.97822 12.975 10.0005 13.1805 10.0856C13.3861 10.1708 13.5618 10.315 13.6854 10.5C13.809 10.685 13.875 10.9025 13.875 11.125C13.875 11.4234 13.7565 11.7095 13.5455 11.9205C13.3345 12.1315 13.0484 12.25 12.75 12.25ZM0.75 3.62501H4.2375C4.40069 4.16433 4.73309 4.63683 5.18555 4.97264C5.63802 5.30846 6.18653 5.48977 6.75 5.48977C7.31347 5.48977 7.86198 5.30846 8.31445 4.97264C8.76691 4.63683 9.09931 4.16433 9.2625 3.62501H17.25C17.4489 3.62501 17.6397 3.54599 17.7803 3.40534C17.921 3.26469 18 3.07392 18 2.87501C18 2.6761 17.921 2.48533 17.7803 2.34468C17.6397 2.20403 17.4489 2.12501 17.25 2.12501H9.2625C9.09931 1.58569 8.76691 1.1132 8.31445 0.777381C7.86198 0.441565 7.31347 0.260254 6.75 0.260254C6.18653 0.260254 5.63802 0.441565 5.18555 0.777381C4.73309 1.1132 4.40069 1.58569 4.2375 2.12501H0.75C0.551088 2.12501 0.360322 2.20403 0.21967 2.34468C0.0790178 2.48533 0 2.6761 0 2.87501C0 3.07392 0.0790178 3.26469 0.21967 3.40534C0.360322 3.54599 0.551088 3.62501 0.75 3.62501ZM6.75 1.75001C6.9725 1.75001 7.19001 1.81599 7.37502 1.93961C7.56002 2.06322 7.70422 2.23893 7.78936 2.44449C7.87451 2.65006 7.89679 2.87626 7.85338 3.09449C7.80998 3.31272 7.70283 3.51317 7.5455 3.67051C7.38816 3.82784 7.18771 3.93499 6.96948 3.97839C6.75125 4.0218 6.52505 3.99952 6.31948 3.91438C6.11391 3.82923 5.93821 3.68503 5.8146 3.50003C5.69098 3.31502 5.625 3.09752 5.625 2.87501C5.625 2.57664 5.74353 2.29049 5.9545 2.07952C6.16548 1.86854 6.45163 1.75001 6.75 1.75001Z" fill="#222222"/>
</svg>