<svg width="32" height="32" viewBox="0 0 32 32" fill="none" xmlns="http://www.w3.org/2000/svg">
    <path d="M5.01 24.56H26.02V21.31L23.38 18.82V12.83C23.38 12.83 23.08 5.96996 15.51 5.45996C15.51 5.45996 8.2 5.56996 7.64 13.23V19.17L5 21.86V24.55L5.01 24.56Z" stroke="#222222" stroke-width="2" stroke-linecap="round" stroke-linejoin="round"/>
    <path d="M18.14 5.9C18.14 5.82 18.16 5.74 18.16 5.65C18.16 4.19 16.98 3 15.51 3C14.04 3 12.86 4.18 12.86 5.65C12.86 5.68 12.86 5.71 12.86 5.75C14.19 5.31 15.25 5.3 15.25 5.3C16.36 5.37 17.3 5.6 18.12 5.9H18.14Z" fill="#222222"/>
    <path d="M11.76 27.0195C12.33 28.5495 13.79 29.6395 15.52 29.6395C17.25 29.6395 18.71 28.5495 19.28 27.0195H11.76Z" fill="#222222"/>
</svg>