<svg width="80" height="80" viewBox="0 0 80 80" fill="none" xmlns="http://www.w3.org/2000/svg">
<circle cx="40" cy="40" r="39.5" fill="#F5F5F5" stroke="#E2E2E2"/>
<path d="M39.2105 30H40.7895C40.9298 30 41 30.0741 41 30.2222V49.7778C41 49.9259 40.9298 50 40.7895 50H39.2105C39.0702 50 39 49.9259 39 49.7778V30.2222C39 30.0741 39.0702 30 39.2105 30Z" fill="#BDBDBD"/>
<path d="M30.2326 39H49.7674C49.9225 39 50 39.0702 50 39.2105V40.7895C50 40.9298 49.9225 41 49.7674 41H30.2326C30.0775 41 30 40.9298 30 40.7895V39.2105C30 39.0702 30.0775 39 30.2326 39Z" fill="#BDBDBD"/>
</svg>
