<svg
  width="24"
  height="24"
  viewBox="0 0 24 24"
  fill="none"
  xmlns="http://www.w3.org/2000/svg"
>
  <path
    d="M14.367 3C14.447 2.99986 14.5262 3.01548 14.6001 3.04597C14.674 3.07645 14.7412 3.12121 14.7978 3.17768L20.8218 9.20188C20.9359 9.31599 21 9.47074 21 9.63209C21 9.79344 20.9359 9.94819 20.8218 10.0623C20.2377 10.6465 19.5172 10.7779 18.9927 10.7779C18.7773 10.7779 18.585 10.756 18.4329 10.7304L14.6189 14.5445C14.7193 14.9491 14.7845 15.3616 14.8136 15.7774C14.8696 16.6317 14.7747 17.8305 13.9374 18.6678C13.8233 18.7818 13.6686 18.8459 13.5072 18.8459C13.3459 18.8459 13.1911 18.7818 13.077 18.6678L9.6342 15.2261L5.76179 19.0986C5.52448 19.3359 4.2783 20.1963 4.04099 19.959C3.80368 19.7217 4.66408 18.4743 4.90139 18.2382L8.7738 14.3656L5.3322 10.9227C5.21812 10.8086 5.15404 10.6539 5.15404 10.4925C5.15404 10.3312 5.21812 10.1764 5.3322 10.0623C6.16947 9.225 7.36819 9.12886 8.22251 9.18605C8.6383 9.21519 9.05078 9.28034 9.4553 9.38078L13.2693 5.56789C13.2375 5.38256 13.2212 5.19489 13.2206 5.00685C13.2206 4.48353 13.3521 3.76307 13.9374 3.17768C14.0515 3.06393 14.2059 3.00004 14.367 3ZM14.5155 5.57032V5.56789V5.57032ZM14.5155 5.56789V5.57032C14.5506 5.67738 14.5554 5.7921 14.5291 5.90169C14.5029 6.01127 14.4468 6.11143 14.367 6.191L10.065 10.4919C9.98507 10.5715 9.88459 10.6273 9.77478 10.6531C9.66496 10.6789 9.55014 10.6736 9.44313 10.6379H9.4407L9.42366 10.6331C9.30788 10.5984 9.19099 10.5675 9.07317 10.5406C8.76703 10.4692 8.45574 10.422 8.14219 10.3994C7.62863 10.3653 7.1248 10.4091 6.71224 10.582L13.4178 17.2865C13.5894 16.8727 13.6332 16.3701 13.5991 15.8565C13.5681 15.4217 13.4897 14.9916 13.3654 14.5738L13.3606 14.5579V14.5567C13.3246 14.4495 13.3193 14.3345 13.3451 14.2244C13.3709 14.1144 13.4268 14.0137 13.5066 13.9336L17.8098 9.63148C17.8927 9.54811 17.9979 9.49052 18.1128 9.46568C18.2277 9.44085 18.3474 9.44982 18.4573 9.49152L18.5741 9.5183C18.68 9.53899 18.8272 9.55968 18.9927 9.55968C19.1315 9.55968 19.2726 9.54629 19.4102 9.511L14.4875 4.58941C14.4522 4.72694 14.4388 4.86933 14.4388 5.00685C14.4394 5.19595 14.4648 5.38416 14.5143 5.56667L14.5155 5.56789Z"
    fill="#FF5831"
  />
</svg>
