<svg width="18" height="18" viewBox="0 0 18 18" fill="none" xmlns="http://www.w3.org/2000/svg">
<path d="M8.99736 18C7.81548 18.0012 6.64497 17.7692 5.55282 17.3174C4.46068 16.8655 3.46835 16.2026 2.63263 15.3667C1.79691 14.5308 1.13422 13.5382 0.682477 12.4458C0.230736 11.3534 -0.00117915 10.1826 4.50811e-06 9.00039V8.8204C0.0360014 7.05595 0.589596 5.34098 1.59198 3.88864C2.59437 2.4363 4.00136 1.31062 5.63807 0.651517C7.27478 -0.0075879 9.06905 -0.17106 10.7979 0.181418C12.5267 0.533896 14.1139 1.38678 15.3621 2.63408C16.6215 3.89271 17.4792 5.49676 17.8268 7.24321C18.1744 8.98966 17.9962 10.8 17.3148 12.4451C16.6334 14.0902 15.4794 15.4962 13.9988 16.485C12.5182 17.4738 10.7776 18.001 8.99736 18ZM8.99736 10.2693L11.3277 12.6002L12.5963 11.3313L10.266 9.00039L12.5963 6.6695L11.3277 5.40055L8.99736 7.73145L6.66705 5.40055L5.39842 6.6695L7.72873 9.00039L5.39842 11.3313L6.66705 12.6002L8.99736 10.2702V10.2693Z" fill="#BDBDBD"/>
</svg>
