<svg width="72" height="72" viewBox="0 0 72 72" fill="none" xmlns="http://www.w3.org/2000/svg">
<g clip-path="url(#clip0_1566_6132)">
<rect width="72" height="72" rx="36" fill="#F5F5F5"/>
<g clip-path="url(#clip1_1566_6132)">
<path d="M-0.464222 54.4094L-3.99683 57.8777L-1.86044 59.9752L1.67216 56.5069L-0.464222 54.4094Z" fill="#D6D6C6"/>
<path d="M7.96132 41.9154L-3.3374 53.0085L3.08857 59.3176L14.3873 48.2245L7.96132 41.9154Z" fill="#303030"/>
<path d="M13.474 22.2002L11.1357 24.4958L11.8254 25.173L14.1637 22.8773L13.474 22.2002Z" fill="#807E7E"/>
<path d="M11.3515 19L7.87817 22.4101V23.1731L10.2968 25.5477L14.5472 21.3746L12.1286 19H11.3515Z" fill="#444443"/>
<path d="M23.2623 23.3131L20.7882 25.7422L19.3132 24.2941L21.7874 21.865H22.3821L23.2623 22.7292V23.3131Z" fill="#807E7E"/>
<path d="M44.2965 30.474L42.1096 32.6211L43.8759 34.3553L46.0628 32.2082L44.2965 30.474Z" fill="#807E7E"/>
<path d="M48.757 32.1109L47.0679 33.7693L42.6985 29.4794L44.3876 27.821H45.3788L48.757 31.1377V32.1109Z" fill="#444443"/>
<path d="M38.656 28.0159L37.8855 28.4175L39.3504 31.127L40.1209 30.7254L38.656 28.0159Z" fill="#807E7E"/>
<path d="M38.9581 27.8714L37.5991 28.5793L37.9299 29.1914L39.2889 28.4835L38.9581 27.8714Z" fill="#444443"/>
<path d="M38.5073 26.3324L36.5601 27.3472L37.3371 28.7844L39.2843 27.7696L38.5073 26.3324Z" fill="#444443"/>
<path d="M33.587 30.0477C34.3325 30.6628 34.4355 31.7528 33.8091 32.4846C33.1826 33.2164 32.0724 33.3177 31.327 32.7026C30.5816 32.0875 30.4785 30.9975 31.105 30.2657C31.7314 29.5338 32.8416 29.4326 33.587 30.0477Z" fill="#807E7E"/>
<path d="M32.0329 32.1577L37.3618 34.9839L41.6757 31.7606C42.5559 31.1845 41.9056 30.5616 41.6677 30.3047H41.6598C41.4298 30.0556 41.0571 30.0166 40.7875 30.2113L38.353 31.4726L32.6276 30.4994C32.2311 30.4293 31.8425 30.6317 31.6681 30.9821V30.9976C31.454 31.4181 31.6205 31.9319 32.0408 32.1499L32.0329 32.1577Z" fill="#444443"/>
<path d="M33.8883 35.1163L33.1111 35.8793L19.9633 22.9707C19.7492 22.7605 19.7492 22.4179 19.9633 22.2155C20.1774 21.9975 20.5263 21.9975 20.7325 22.2155L33.8803 35.1241L33.8883 35.1163Z" fill="#444443"/>
<path d="M57.8923 58.839L56.0922 57.0716C55.8464 56.8303 55.8305 56.4721 56.0446 56.2619L56.1001 56.2074L33.024 33.5513L31.5173 35.0305L56.568 59.6253L62 62.0077L58.7725 58.839L58.717 58.8935C58.5029 59.1037 58.1302 59.0803 57.8923 58.8468V58.839Z" fill="#807E7E"/>
<path d="M57.8923 58.839L56.0922 57.0716C55.8464 56.8303 55.8305 56.4721 56.0446 56.2619L56.1001 56.2074L33.024 33.5513L31.5173 35.0305L56.568 59.6253L62 62.0077L58.7725 58.839L58.717 58.8935C58.5029 59.1037 58.1302 59.0803 57.8923 58.8468V58.839Z" fill="#807E7E"/>
<path d="M37.3142 33.2788L32.0012 38.4952L26.1647 32.765L21.042 37.7945L26.8784 43.5247L28.8213 45.4322C30.1297 46.7168 32.247 46.7168 33.5554 45.4322L36.3071 42.7306L44.578 34.6102L41.9374 32.0176C37.6711 33.1776 41.9374 32.0176 37.3142 33.2788Z" fill="#374A57"/>
<path d="M10.1064 26.5209C10.2492 29.2848 9.60683 32.1811 7.96533 36.1128L15.9111 43.914L26.68 33.3411C27.2985 32.7339 27.2985 31.7529 26.68 31.1456L17.1561 21.7951C16.5376 21.1878 15.5384 21.1878 14.9199 21.7951L10.1064 26.5209Z" fill="#374A57"/>
<path d="M55.1643 54.806L53.3087 56.6278C51.921 57.9903 49.6689 57.9903 48.2732 56.6278L38.6938 47.2228L45.577 40.4648L55.1564 49.8699C56.5441 51.2324 56.5441 53.4435 55.1564 54.8137L55.1643 54.806Z" fill="#C6D5D6"/>
<path d="M43.1743 39.6319L37.8613 44.8483C37.4251 45.2765 37.4251 45.9617 37.8613 46.3899L38.7019 47.2151L45.585 40.4572L44.7445 39.6319C44.3083 39.2037 43.6105 39.2037 43.1743 39.6319Z" fill="#444443"/>
<path d="M30.0504 36.5878L19.2498 47.1918C18.3379 48.0872 16.8629 48.0872 15.9589 47.1918L9.09948 40.4573C8.18754 39.5619 8.18754 38.1138 9.09948 37.2262L16.506 29.9545C18.3854 28.1093 21.4226 28.1093 23.302 29.9545L30.0583 36.5878H30.0504Z" fill="#537894"/>
<path d="M32.7306 31.0599C32.9051 31.2078 32.9289 31.4647 32.7862 31.636C32.6434 31.8073 32.3738 31.8306 32.1993 31.6905C32.0249 31.5426 32.0011 31.2856 32.1438 31.1144C32.2945 30.9431 32.5562 30.9197 32.7306 31.0599Z" fill="#807E7E"/>
<path d="M15.4831 28.6464C15.7289 28.8877 16.1016 28.9033 16.3237 28.6853C16.5457 28.4673 16.5299 28.1014 16.284 27.86L14.1826 25.7968C13.9368 25.5555 13.5641 25.5399 13.342 25.7579C13.12 25.9759 13.1359 26.3418 13.3817 26.5832L15.4831 28.6464Z" fill="#303030"/>
<path d="M32.9605 40.7452C32.4451 41.2513 32.4054 42.0376 32.8733 42.497C33.3412 42.9563 34.1421 42.9174 34.6575 42.4114L39.1221 38.028C39.6375 37.522 39.6772 36.7356 39.2093 36.2763C38.7414 35.8169 37.9405 35.8559 37.4251 36.3619L32.9605 40.7452Z" fill="#303030"/>
<path d="M15.6417 47.6121H15.6338C15.3879 47.8613 15.0152 47.8846 14.7932 47.6666L8.53647 41.5238C8.31443 41.3058 8.33822 40.9399 8.58405 40.6985H8.59198C8.83781 40.4494 9.21844 40.426 9.43255 40.644L15.6893 46.7869C15.9113 47.0049 15.8875 47.3708 15.6417 47.6121Z" fill="#303030"/>
<path d="M7.67629 41.7725L5.82027 43.5948C5.51678 43.8927 5.51678 44.3758 5.82027 44.6738L11.5958 50.3442C11.8993 50.6422 12.3913 50.6422 12.6948 50.3442L14.5508 48.522C14.8543 48.224 14.8543 47.7409 14.5508 47.4429L8.77532 41.7725C8.47183 41.4746 7.97978 41.4746 7.67629 41.7725Z" fill="#444443"/>
<path d="M4.14723 45.232L2.29122 47.0542C1.98773 47.3522 1.98773 47.8353 2.29122 48.1333L8.06674 53.8037C8.37023 54.1017 8.86229 54.1017 9.16578 53.8037L11.0218 51.9814C11.3253 51.6835 11.3253 51.2004 11.0218 50.9024L5.24627 45.232C4.94278 44.934 4.45072 44.934 4.14723 45.232Z" fill="#444443"/>
<path d="M0.618426 48.699L-1.23759 50.5213C-1.54108 50.8192 -1.54108 51.3023 -1.23759 51.6003L4.53793 57.2707C4.84142 57.5687 5.33348 57.5687 5.63697 57.2707L7.49299 55.4485C7.79648 55.1505 7.79648 54.6674 7.49299 54.3695L1.71746 48.699C1.41397 48.4011 0.921915 48.4011 0.618426 48.699Z" fill="#444443"/>
<path d="M-2.92381 52.1639L-4.77983 53.9861C-5.08332 54.2841 -5.08332 54.7672 -4.77983 55.0652L0.995698 60.7356C1.29919 61.0335 1.79124 61.0335 2.09473 60.7356L3.95075 58.9133C4.25424 58.6154 4.25424 58.1323 3.95075 57.8343L-1.82478 52.1639C-2.12827 51.8659 -2.62032 51.8659 -2.92381 52.1639Z" fill="#444443"/>
</g>
</g>
<defs>
<clipPath id="clip0_1566_6132">
<rect width="72" height="72" rx="36" fill="white"/>
</clipPath>
<clipPath id="clip1_1566_6132">
<rect width="67" height="43" fill="white" transform="translate(-5 19)"/>
</clipPath>
</defs>
</svg>
