<svg width="72" height="72" viewBox="0 0 72 72" fill="none" xmlns="http://www.w3.org/2000/svg">
<g opacity="0.5">
<g clip-path="url(#clip0_2787_6164)">
<rect width="72" height="72" rx="36" fill="#F5F5F5"/>
<g clip-path="url(#clip1_2787_6164)">
<path d="M34.1899 43.8524L29.3167 40.8447L15.0101 63.4938L19.8833 66.5015L34.1899 43.8524Z" fill="#909BA0"/>
<path d="M12.8266 72.3793L12.7707 72.3448C11.2333 71.3963 10.5708 69.7032 11.2906 68.5634L19.4243 55.4648L25.2812 58.907L16.9134 72.0339C16.1936 73.1737 14.3641 73.3284 12.8266 72.38L12.8266 72.3793Z" fill="#2E4661"/>
<path opacity="0.12" d="M25.1625 47.6226L24.5538 48.4487L26.5175 55.9264L30.5393 49.6963L25.1625 47.6226Z" fill="#272525"/>
<path d="M24.4773 47.1824C31.2305 53.8578 42.1796 53.8578 48.9328 47.1824C55.686 40.507 55.686 29.6841 48.9328 23.0087C42.1796 16.3333 31.2305 16.3333 24.4773 23.0087C17.7241 29.6841 17.7241 40.507 24.4773 47.1824Z" fill="#59595B"/>
<path d="M21.8291 35.0958C21.8291 43.2169 28.4894 49.8004 36.7052 49.8004C44.921 49.8004 51.5813 43.2169 51.5813 35.0958C51.5813 26.9746 44.921 20.3911 36.7052 20.3911C28.4894 20.3911 21.8291 26.9746 21.8291 35.0958Z" fill="#C7E4F4"/>
<path d="M37.3041 24.4989C42.0471 24.4264 46.3393 27.4734 47.6559 31.9966C48.969 36.5088 46.955 41.4265 42.8584 43.8C41.704 44.4694 42.6683 46.2889 43.8249 45.6188C48.5414 42.8861 50.9831 37.4683 49.8454 32.1859C48.7245 26.9802 44.1981 23.1388 38.9072 22.5129C38.3957 22.4521 37.8792 22.4376 37.3642 22.4452C36.0294 22.4652 35.9595 24.5196 37.3034 24.4989L37.3041 24.4989Z" fill="white"/>
<path d="M38.2955 46.1758C38.3081 46.923 38.9311 47.5188 39.6871 47.5064C40.443 47.494 41.0457 46.8782 41.0332 46.1309C41.0207 45.3836 40.3977 44.7879 39.6417 44.8003C38.8857 44.8127 38.283 45.4285 38.2955 46.1758Z" fill="white"/>
<path d="M19.6181 55.6381L25.1906 58.9131C25.3821 59.0257 25.6288 58.9766 25.7609 58.7998L25.8042 58.7424C25.958 58.5373 25.8972 58.2451 25.6735 58.1166L20.0626 54.8913C19.8523 54.7704 19.5832 54.8437 19.4651 55.0537L19.4609 55.0613C19.347 55.2644 19.4169 55.5199 19.6181 55.6381Z" fill="#A36652"/>
<path d="M36.599 49.4404C33.0237 49.4273 29.5575 48.1438 26.8691 45.8097C24.2149 43.5059 22.5014 40.2979 22.0066 36.8482C21.5006 33.321 22.4056 29.6792 24.4057 26.7323C26.3534 23.8615 29.3576 21.767 32.7197 20.849C36.2062 19.8964 40.0086 20.2908 43.2344 21.8962C46.3421 23.4428 48.8426 26.1024 50.1864 29.273C51.589 32.584 51.6735 36.3418 50.4876 39.7259C49.3457 42.9851 46.9718 45.7537 43.9682 47.4883C41.7375 48.7766 39.177 49.4314 36.5983 49.4404C36.0881 49.4425 36.0881 50.2244 36.5983 50.2231C40.1805 50.2099 43.6299 48.9852 46.4134 46.7616C49.1312 44.5904 51.0313 41.4791 51.7672 38.1095C52.5303 34.6142 51.9985 30.9178 50.3304 27.7526C48.7265 24.7097 46.0423 22.2561 42.8752 20.8669C39.5648 19.4149 35.7841 19.1752 32.3039 20.152C28.9404 21.0963 25.9984 23.2073 23.9598 26.0008C21.8633 28.8731 20.8815 32.4617 21.1268 35.9854C21.37 39.4793 22.8655 42.802 25.2702 45.3641C28.1752 48.4595 32.3396 50.2086 36.599 50.2238C37.1091 50.2258 37.1091 49.4432 36.599 49.4411L36.599 49.4404Z" fill="#4E687C"/>
</g>
</g>
</g>
<defs>
<clipPath id="clip0_2787_6164">
<rect width="72" height="72" rx="36" fill="white"/>
</clipPath>
<clipPath id="clip1_2787_6164">
<rect width="55" height="43" fill="white" transform="translate(54 18) rotate(90)"/>
</clipPath>
</defs>
</svg>
