<svg width="80" height="80" viewBox="0 0 80 80" fill="none" xmlns="http://www.w3.org/2000/svg">
<path d="M4.65613 77.0437C6.07488 78.5812 11.9186 75.8999 16.5311 73.7499C19.9874 72.1437 33.8186 66.4687 40.6936 63.5249C42.5499 62.7312 45.2499 61.6937 47.1936 59.1374C48.9186 56.8624 53.4936 47.1999 44.2811 37.4124C34.9311 27.4749 25.2999 30.2187 21.6999 32.7687C19.5811 34.2687 17.8561 37.6499 17.0811 39.3687C13.8061 46.6312 9.13738 59.9374 7.23738 65.1687C5.84363 69.0249 3.24988 75.5187 4.65613 77.0437Z" fill="#FFC107"/>
<path d="M16.1562 41.5562C16.2437 42.6437 16.4625 44.4124 17.2125 47.8187C17.725 50.1562 18.5625 52.6062 19.2437 54.2249C21.2875 59.0937 24.1562 61.0562 27.0625 62.6312C32 65.3062 35.3562 65.8062 35.3562 65.8062L31.3312 67.4499C31.3312 67.4499 28.8937 66.9437 25.5687 65.3062C22.4 63.7437 19.1 61.0999 16.6875 55.9249C15.6437 53.6812 15.0375 51.5062 14.6875 49.7812C14.2562 47.6437 14.1875 46.4312 14.1875 46.4312L16.1562 41.5562ZM11.2125 54.2312C11.2125 54.2312 11.7125 58.2874 15.0625 63.4062C18.9875 69.3937 24.4687 70.3749 24.4687 70.3749L20.825 71.8749C20.825 71.8749 16.7562 70.6312 12.8875 65.3499C10.475 62.0562 9.79995 58.1187 9.79995 58.1187L11.2125 54.2312ZM7.7437 63.8437C7.7437 63.8437 8.6562 67.3437 10.6562 69.9562C13.0375 73.0749 16.0687 73.9812 16.0687 73.9812L13.275 75.2187C13.275 75.2187 11.1562 74.7749 8.83745 71.8374C7.07495 69.6062 6.57495 67.0437 6.57495 67.0437L7.7437 63.8437Z" fill="#FF8F00"/>
<path opacity="0.44" d="M6.22506 72.7313C6.10006 72.45 6.10006 72.1312 6.23131 71.8563L22.1501 38.8438L24.7688 48.6875L8.01881 72.8812C7.56881 73.5562 6.55631 73.4688 6.22506 72.7313Z" fill="#FFFDE7"/>
<path d="M26.0312 51.9937C33.4687 60.6937 41.9375 59.6062 44.7562 57.4062C47.5812 55.1999 49.8125 47.6187 42.4062 39.0624C34.6437 30.0999 25.8562 32.6562 23.825 34.5937C21.7937 36.5312 19.2062 44.0125 26.0312 51.9937Z" fill="url(#paint0_linear_2591_8406)"/>
<path d="M51.5749 55.5751C48.8624 53.3001 47.4187 53.7064 45.4812 54.5126C42.9812 55.5501 39.0499 56.3188 33.7124 54.5126L35.3187 50.6438C38.4874 51.7126 40.7812 51.1938 42.7624 50.0251C45.3124 48.5251 48.7999 46.4688 54.2249 51.0251C56.4874 52.9251 58.8062 54.1876 60.5062 53.6126C61.7437 53.2001 62.3999 51.3563 62.7312 49.8876C62.7624 49.7563 62.8124 49.3814 62.8499 49.0501C63.1499 46.7564 63.6499 41.8063 67.3374 39.2751C71.2812 36.5688 75.4249 36.5688 75.4249 36.5688L76.1749 44.0188C74.2687 43.7376 72.9437 44.1251 71.8249 44.7438C67.6124 47.0876 71.2812 56.0876 64.7249 59.1126C58.4187 62.0438 53.2624 56.9876 51.5749 55.5751Z" fill="#03A9F4"/>
<path d="M28.375 46.075L25.6625 43.6438C30.6438 38.0813 29.3313 33.9938 28.375 31.0188C28.1813 30.4188 28 29.85 27.8813 29.3062C27.4563 27.3813 27.3688 25.7063 27.5 24.2438C25.5875 21.8625 24.7438 19.3687 24.6875 19.2C23.525 15.6812 24.4 12.25 26.4063 9.03125C30.4625 2.5 37.8063 2.5 37.8063 2.5L40.2563 9.05625C38.3938 8.98125 32.2875 9.075 30.4125 12.0312C28.0438 15.7563 29.6 18.0562 29.7125 18.3187C30.1688 17.725 30.6313 17.25 31.0438 16.8813C34.0375 14.225 36.6375 13.8438 38.2938 13.9937C40.1563 14.1625 41.8438 15.1 43.05 16.6375C44.3688 18.325 44.9125 20.5188 44.4938 22.5125C44.0875 24.4563 42.7938 26.1 40.85 27.1437C37.4563 28.9688 34.6313 28.7188 32.7375 28.0875C32.75 28.1312 32.7563 28.1812 32.7688 28.225C32.8375 28.5375 32.975 28.975 33.1375 29.4812C34.2438 32.9062 36.3 38.3438 28.375 46.075ZM32.9688 22.6187C33.3313 22.8812 33.7125 23.1 34.1063 23.2562C35.4188 23.7812 36.85 23.6062 38.475 22.7312C39.4313 22.2188 39.5438 21.6688 39.5813 21.4875C39.6938 20.9438 39.5063 20.25 39.1 19.7313C38.7438 19.275 38.3313 19.0375 37.8375 18.9875C36.9 18.9062 35.6313 19.5 34.3625 20.6312C33.7563 21.175 33.2938 21.8438 32.9688 22.6187Z" fill="#F44336"/>
<path d="M39.2313 47.0938L35.3501 46.9876C35.3501 46.9876 37.1938 36.5751 43.1626 34.8251C44.2813 34.5001 45.5063 34.1688 46.7376 33.9876C47.4688 33.8751 48.6251 33.7064 49.1938 33.4939C49.3251 32.5126 48.9126 31.2626 48.4501 29.8438C48.0876 28.7438 47.7126 27.6126 47.5126 26.3751C47.1251 23.9626 47.7688 21.8314 49.3251 20.3626C51.2251 18.5813 54.2938 18.0126 57.7563 18.8001C59.7313 19.2501 61.1876 20.2188 62.4688 21.0688C64.3001 22.2876 65.3688 22.9063 67.6063 21.4001C70.3126 19.5751 66.7751 12.4313 64.8938 8.30635L71.9126 5.38135C72.8563 7.44385 77.4126 18.0563 74.4063 24.1126C73.3938 26.1501 71.6501 27.5001 69.3626 28.0063C64.3876 29.1189 61.4751 27.1813 59.3501 25.7688C58.3438 25.1001 57.4626 24.5751 56.5063 24.3001C49.8626 22.4063 59.1376 32.1814 54.7938 36.5751C52.1876 39.2064 45.8188 39.9001 45.4063 40.0001C41.3063 40.9876 39.2313 47.0938 39.2313 47.0938Z" fill="#F48FB1"/>
<path d="M27.4938 24.2437C27.375 25.6187 27.3188 26.4374 27.675 28.2249C29.3938 29.4874 33.1375 29.4874 33.1375 29.4874C32.975 28.9812 32.8313 28.5437 32.7688 28.2312C32.7563 28.1874 32.75 28.1374 32.7375 28.0937C28.9313 26.1937 27.4938 24.2437 27.4938 24.2437Z" fill="#C92B27"/>
<path d="M19.7062 30.3998L13.2437 27.2311L16.4624 22.5811L21.5312 25.9373L19.7062 30.3998Z" fill="#FFC107"/>
<path d="M10.1812 21.6251C6.88115 21.1813 3.51865 18.3813 3.1499 18.0626L6.39365 14.2563C7.3749 15.0876 9.45615 16.4813 10.8499 16.6688L10.1812 21.6251Z" fill="#FB8C00"/>
<path d="M16.0063 13.2938L11.2563 11.7376C11.8001 10.0751 11.9438 8.28135 11.6626 6.5501L16.6001 5.75635C17.0063 8.26885 16.8001 10.8751 16.0063 13.2938Z" fill="#03A9F4"/>
<path d="M45.6707 9.57803L50.555 8.50928L51.9657 14.9568L47.0813 16.0255L45.6707 9.57803Z" fill="#FB8C00"/>
<path d="M57.7876 11.1064L54.3501 7.4752C56.1501 5.76895 56.5626 3.5377 56.5626 3.5127L61.5001 4.31895C61.4376 4.7127 60.8063 8.2502 57.7876 11.1064Z" fill="#FFC107"/>
<path d="M59.6963 30.3626L64.0632 28.9976L65.5544 33.7701L61.1875 35.1351L59.6963 30.3626Z" fill="#FB8C00"/>
<path d="M60.9688 70.6439L56 70.0564C56.2125 68.2877 54.8937 66.1189 54.5312 65.6377L58.5313 62.6377C58.8313 63.0314 61.4375 66.6377 60.9688 70.6439Z" fill="#F44336"/>
<path d="M75.2313 64.306C73.3626 64.0248 71.4501 63.9123 69.5626 63.981L69.3938 58.981C71.5875 58.906 73.8063 59.031 75.975 59.3623L75.2313 64.306Z" fill="#FB8C00"/>
<path d="M68.5088 71.189L72.0213 67.6309L76.8557 72.4046L73.3432 75.9621L68.5088 71.189Z" fill="#F48FB1"/>
<path d="M58.1895 39.584L61.802 43.7146L57.6713 47.3271L54.0588 43.1965L58.1895 39.584Z" fill="#F44336"/>
<defs>
<linearGradient id="paint0_linear_2591_8406" x1="46.49" y1="38.6493" x2="27.8856" y2="49.8118" gradientUnits="userSpaceOnUse">
<stop offset="0.024" stop-color="#8F4700"/>
<stop offset="1" stop-color="#703E2D"/>
</linearGradient>
</defs>
</svg>
