<svg width="16" height="16" viewBox="0 0 16 16" fill="none" xmlns="http://www.w3.org/2000/svg">
    <path d="M0.248118 15.7491L0.251057 15.752C0.328985 15.8305 0.421662 15.8928 0.52376 15.9354C0.625857 15.9779 0.73536 15.9999 0.845974 16C0.939049 15.9999 1.03148 15.9846 1.11958 15.9546L5.91642 14.3273L15.1212 5.12245C15.6839 4.55969 16 3.79643 16 3.00059C16 2.20475 15.6838 1.44152 15.121 0.878797C14.5583 0.316078 13.795 -3.48389e-05 12.9992 2.87988e-09C12.2034 3.48447e-05 11.4401 0.316214 10.8774 0.878983L1.67262 10.0839L0.0455449 14.8806C-0.00570781 15.0298 -0.0138887 15.1904 0.0219403 15.344C0.0577693 15.4976 0.136158 15.638 0.248118 15.7491ZM11.6418 1.64331C12.0023 1.28556 12.4899 1.08524 12.9977 1.08622C13.5056 1.08719 13.9924 1.28938 14.3515 1.64851C14.7106 2.00764 14.9128 2.49445 14.9138 3.00233C14.9147 3.51021 14.7144 3.99777 14.3567 4.35826L13.1462 5.56871L10.4313 2.85376L11.6418 1.64331ZM2.61539 10.6698L9.66697 3.61809L12.3819 6.33304L5.33028 13.3847L1.2216 14.7785L2.61539 10.6698Z" fill="#696969"/>
    <svg width="12" height="32" viewBox="0 0 12 2" fill="none" xmlns="http://www.w3.org/2000/svg">
        <rect width="12" height="1.2" rx="0.6" fill="#696969"/>
    </svg>
</svg>