<svg width="17" height="17" viewBox="0 0 17 17" fill="none" xmlns="http://www.w3.org/2000/svg">
    <path d="M10.367 9.70559e-07C10.447 -0.000141842 10.5262 0.0154773 10.6001 0.0459654C10.674 0.0764535 10.7412 0.121213 10.7978 0.177684L16.8218 6.20188C16.9359 6.31599 17 6.47074 17 6.63209C17 6.79344 16.9359 6.94819 16.8218 7.0623C16.2377 7.64647 15.5172 7.7779 14.9927 7.7779C14.7773 7.7779 14.585 7.756 14.4329 7.73044L10.6189 11.5445C10.7193 11.9491 10.7845 12.3616 10.8136 12.7774C10.8696 13.6317 10.7747 14.8305 9.93742 15.6678C9.82331 15.7818 9.66857 15.8459 9.50722 15.8459C9.34587 15.8459 9.19113 15.7818 9.07702 15.6678L5.6342 12.2261L1.76179 16.0986C1.52448 16.3359 0.278296 17.1963 0.0409856 16.959C-0.196324 16.7217 0.664076 15.4743 0.901386 15.2382L4.7738 11.3656L1.3322 7.92273C1.21812 7.80861 1.15404 7.65387 1.15404 7.49251C1.15404 7.33116 1.21812 7.17641 1.3322 7.0623C2.16947 6.225 3.36819 6.12886 4.22251 6.18605C4.6383 6.21519 5.05078 6.28034 5.4553 6.38078L9.2693 2.56789C9.23747 2.38256 9.22118 2.19489 9.22062 2.00685C9.22062 1.48353 9.35206 0.763065 9.93742 0.177684C10.0515 0.0639317 10.2059 3.51916e-05 10.367 9.70559e-07ZM10.5155 2.57032V2.56789V2.57032ZM10.5155 2.56789V2.57032C10.5506 2.67738 10.5554 2.7921 10.5291 2.90169C10.5029 3.01127 10.4468 3.11143 10.367 3.191L6.06501 7.4919C5.98507 7.5715 5.88459 7.62731 5.77478 7.65309C5.66496 7.67888 5.55014 7.67364 5.44313 7.63795H5.4407L5.42366 7.63308C5.30788 7.59839 5.19099 7.56755 5.07317 7.54059C4.76703 7.46917 4.45574 7.42197 4.14219 7.39941C3.62863 7.36534 3.1248 7.40915 2.71224 7.58196L9.41777 14.2865C9.58937 13.8727 9.63318 13.3701 9.5991 12.8565C9.5681 12.4217 9.48975 11.9916 9.36544 11.5738L9.36057 11.5579V11.5567C9.32464 11.4495 9.31927 11.3345 9.34506 11.2244C9.37086 11.1144 9.4268 11.0137 9.50661 10.9336L13.8098 6.63148C13.8927 6.54811 13.9979 6.49052 14.1128 6.46568C14.2277 6.44085 14.3474 6.44982 14.4573 6.49152L14.5741 6.5183C14.68 6.53899 14.8272 6.55968 14.9927 6.55968C15.1315 6.55968 15.2726 6.54629 15.4102 6.511L10.4875 1.58941C10.4522 1.72694 10.4388 1.86933 10.4388 2.00685C10.4394 2.19595 10.4648 2.38416 10.5143 2.56667L10.5155 2.56789Z" fill="#696969"/>
</svg>