<svg width="24" height="24" viewBox="0 0 24 24" fill="none" xmlns="http://www.w3.org/2000/svg">
    <path d="M6.03125 20H13.9688C14.2422 19.9997 14.5043 19.8792 14.6977 19.6649C14.891 19.4507 14.9997 19.1602 15 18.8571V17.1429H13.9688V18.8571H6.03125V5.14286H13.9688V6.85714H15V5.14286C14.9997 4.83985 14.891 4.54933 14.6977 4.33507C14.5043 4.12081 14.2422 4.0003 13.9688 4H6.03125C5.75783 4.0003 5.49569 4.12081 5.30235 4.33507C5.10901 4.54933 5.00027 4.83985 5 5.14286V18.8571C5.00027 19.1602 5.10901 19.4507 5.30235 19.6649C5.49569 19.8792 5.75783 19.9997 6.03125 20Z" fill="#696969"/>
    <path d="M15.8811 14.6752L17.8733 12.5833H10V11.4167H17.8733L15.8811 9.32483L16.6667 8.5L20 12L16.6667 15.5L15.8811 14.6752Z" fill="#696969"/>
</svg>