<svg width="24" height="24" viewBox="0 0 24 24" fill="none" xmlns="http://www.w3.org/2000/svg">
    <path d="M15.3569 9H14.515C14.332 9 14.1578 9.09246 14.0501 9.25096L11.2285 13.3644L9.95053 11.5002C9.84283 11.3435 9.67052 11.2492 9.48564 11.2492H8.64382C8.52715 11.2492 8.45894 11.3888 8.52715 11.4888L10.7636 14.7494C10.8165 14.827 10.8861 14.8901 10.9668 14.9337C11.0475 14.9773 11.1369 15 11.2276 15C11.3183 15 11.4077 14.9773 11.4884 14.9337C11.5691 14.8901 11.6388 14.827 11.6916 14.7494L15.4717 9.23964C15.5417 9.13963 15.4735 9 15.3569 9Z" fill="#696969"/>
    <circle cx="12" cy="12" r="7.4" stroke="#696969" stroke-width="1.2"/>
</svg>